<svg width="48" height="60" viewBox="0 0 48 60" fill="none" xmlns="http://www.w3.org/2000/svg">
<path fill-rule="evenodd" clip-rule="evenodd" d="M24 48C27.1517 48 30.2726 47.3792 33.1844 46.1731C36.0962 44.967 38.742 43.1992 40.9706 40.9706C43.1992 38.742 44.967 36.0962 46.1731 33.1844C47.3792 30.2726 48 27.1517 48 24C48 20.8483 47.3792 17.7274 46.1731 14.8156C44.967 11.9038 43.1992 9.25804 40.9706 7.02944C38.742 4.80083 36.0962 3.033 33.1844 1.82689C30.2726 0.620778 27.1517 0 24 0V10.2325C25.808 10.2325 27.5982 10.5886 29.2686 11.2805C30.939 11.9723 32.4567 12.9865 33.7351 14.2649C35.0135 15.5433 36.0276 17.061 36.7195 18.7314C37.4114 20.4017 37.7675 22.192 37.7675 24C37.7675 25.808 37.4114 27.5983 36.7195 29.2686C36.0276 30.939 35.0135 32.4567 33.7351 33.7351C32.4567 35.0135 30.939 36.0277 29.2686 36.7195C27.5982 37.4114 25.808 37.7675 24 37.7675V48ZM24 18.8936C20.8483 18.8936 17.7274 19.5144 14.8156 20.7205C11.9038 21.9266 9.25804 23.6944 7.02944 25.923C4.80083 28.1517 3.033 30.7974 1.82689 33.7092C0.620778 36.621 0 39.7419 0 42.8936V59.234H10.2128V42.8936H10.2325C10.2325 41.0856 10.5886 39.2954 11.2805 37.625C11.9723 35.9547 12.9865 34.4369 14.2649 33.1585C15.5433 31.8801 17.061 30.866 18.7314 30.1741C20.4018 29.4822 22.192 29.1261 24 29.1261V18.8936Z" fill="#33363F"/>
</svg>
